<svg xmlns="http://www.w3.org/2000/svg" width="15" height="15" viewBox="0 0 15 15">
    <path d="M13.9935 1.12154C13.9881 1.09562 13.9755 1.07178 13.9571 1.05278C13.9387 1.03379 13.9152 1.02045 13.8895 1.01431C12.1736 0.594778 8.20883 2.0898 6.06079 4.23696C5.67766 4.61699 5.32839 5.02968 5.01694 5.47036C4.35454 5.41177 3.69214 5.46069 3.12758 5.70679C1.53471 6.40786 1.07094 8.23716 0.941746 9.02407C0.934417 9.06714 0.937181 9.11133 0.949821 9.15315C0.96246 9.19497 0.98463 9.23329 1.01459 9.26509C1.04454 9.29689 1.08147 9.32131 1.12246 9.33643C1.16346 9.35154 1.2074 9.35694 1.25083 9.3522L3.80874 9.07007C3.81056 9.26292 3.8222 9.45555 3.8436 9.64721C3.85647 9.78032 3.91556 9.9047 4.01059 9.99878L5.00112 10.987C5.09528 11.0819 5.21962 11.1409 5.35268 11.154C5.54328 11.1753 5.73483 11.1869 5.92661 11.1888L5.64594 13.7435C5.64126 13.7869 5.6467 13.8308 5.66184 13.8718C5.67697 13.9128 5.70139 13.9497 5.73318 13.9796C5.76497 14.0095 5.80326 14.0317 5.84505 14.0444C5.88685 14.057 5.93101 14.0598 5.97407 14.0526C6.75952 13.9266 8.59203 13.4628 9.28901 11.87C9.5351 11.3054 9.58549 10.6462 9.52866 9.98706C9.9704 9.67558 10.3842 9.32622 10.7653 8.94292C12.9201 6.79897 14.4066 2.92271 13.9935 1.12154ZM8.61547 6.3853C8.41871 6.18867 8.28469 5.9381 8.23035 5.66529C8.17602 5.39248 8.20381 5.10968 8.31022 4.85267C8.41663 4.59566 8.59687 4.37598 8.82815 4.22142C9.05943 4.06686 9.33135 3.98436 9.60952 3.98436C9.88768 3.98436 10.1596 4.06686 10.3909 4.22142C10.6222 4.37598 10.8024 4.59566 10.9088 4.85267C11.0152 5.10968 11.043 5.39248 10.9887 5.66529C10.9343 5.9381 10.8003 6.18867 10.6036 6.3853C10.4731 6.51596 10.3181 6.61962 10.1476 6.69034C9.977 6.76106 9.79416 6.79746 9.60952 6.79746C9.42487 6.79746 9.24203 6.76106 9.07146 6.69034C8.9009 6.61962 8.74595 6.51596 8.61547 6.3853Z"/>
    <path d="M4.93359 11.7028C4.77305 11.8636 4.51553 11.9263 4.20557 11.9799C3.50918 12.0986 2.89424 11.4968 3.01934 10.7928C3.06709 10.5259 3.2083 10.1518 3.29619 10.0639C3.3154 10.0451 3.32819 10.0207 3.33274 9.99414C3.33728 9.96762 3.33336 9.94034 3.32152 9.91618C3.30968 9.89202 3.29053 9.8722 3.26679 9.85954C3.24305 9.84688 3.21592 9.84202 3.18926 9.84566C2.79983 9.8933 2.43754 10.0699 2.16006 10.3472C1.47129 11.0366 1.40625 13.5945 1.40625 13.5945C1.40625 13.5945 3.96562 13.5294 4.65439 12.8401C4.93261 12.5628 5.10939 12.2 5.15625 11.81C5.16709 11.6875 5.01797 11.6146 4.93359 11.7028Z"/>
</svg>